<mxfile host="app.diagrams.net" modified="2021-04-25T23:50:36.008Z" agent="5.0 (Windows NT 10.0; Win64; x64) AppleWebKit/537.36 (KHTML, like Gecko) Chrome/89.0.4389.128 Safari/537.36" etag="SyPYVUpYSo-B1rAv8m8Q" version="14.6.6" type="github">
  <diagram id="zOb24emDwLR1TT5S_NGO" name="Page-1">
    <mxGraphModel dx="868" dy="450" grid="1" gridSize="10" guides="1" tooltips="1" connect="1" arrows="1" fold="1" page="1" pageScale="1" pageWidth="850" pageHeight="1100" math="0" shadow="0">
      <root>
        <mxCell id="0" />
        <mxCell id="1" parent="0" />
        <mxCell id="JLv5--RsgvomBnjnf3lx-27" value="" style="rounded=0;whiteSpace=wrap;html=1;" vertex="1" parent="1">
          <mxGeometry x="460" y="40" width="220" height="490" as="geometry" />
        </mxCell>
        <mxCell id="JLv5--RsgvomBnjnf3lx-1" value="Message" style="shape=cylinder3;whiteSpace=wrap;html=1;boundedLbl=1;backgroundOutline=1;size=15;direction=north;" vertex="1" parent="1">
          <mxGeometry x="20" y="190" width="130" height="40" as="geometry" />
        </mxCell>
        <mxCell id="JLv5--RsgvomBnjnf3lx-44" style="edgeStyle=orthogonalEdgeStyle;rounded=0;orthogonalLoop=1;jettySize=auto;html=1;entryX=0.5;entryY=0;entryDx=0;entryDy=0;" edge="1" parent="1" source="JLv5--RsgvomBnjnf3lx-2" target="JLv5--RsgvomBnjnf3lx-27">
          <mxGeometry relative="1" as="geometry" />
        </mxCell>
        <mxCell id="JLv5--RsgvomBnjnf3lx-2" value="Subsciber" style="rounded=0;whiteSpace=wrap;html=1;" vertex="1" parent="1">
          <mxGeometry x="240" y="165" width="140" height="90" as="geometry" />
        </mxCell>
        <mxCell id="JLv5--RsgvomBnjnf3lx-3" value="" style="shape=flexArrow;endArrow=classic;html=1;entryX=0;entryY=0.433;entryDx=0;entryDy=0;entryPerimeter=0;exitX=0.651;exitY=1;exitDx=0;exitDy=0;exitPerimeter=0;" edge="1" parent="1" source="JLv5--RsgvomBnjnf3lx-1" target="JLv5--RsgvomBnjnf3lx-2">
          <mxGeometry width="50" height="50" relative="1" as="geometry">
            <mxPoint x="150" y="210" as="sourcePoint" />
            <mxPoint x="450" y="210" as="targetPoint" />
          </mxGeometry>
        </mxCell>
        <mxCell id="JLv5--RsgvomBnjnf3lx-49" style="edgeStyle=orthogonalEdgeStyle;rounded=0;orthogonalLoop=1;jettySize=auto;html=1;entryX=0.5;entryY=0;entryDx=0;entryDy=0;exitX=0.95;exitY=0.95;exitDx=0;exitDy=0;exitPerimeter=0;" edge="1" parent="1" source="JLv5--RsgvomBnjnf3lx-6" target="JLv5--RsgvomBnjnf3lx-11">
          <mxGeometry relative="1" as="geometry" />
        </mxCell>
        <mxCell id="JLv5--RsgvomBnjnf3lx-6" value="&lt;span style=&quot;color: rgba(0 , 0 , 0 , 0) ; font-family: monospace ; font-size: 0px&quot;&gt;%3CmxGraphModel%3E%3Croot%3E%3CmxCell%20id%3D%220%22%2F%3E%3CmxCell%20id%3D%221%22%20parent%3D%220%22%2F%3E%3CmxCell%20id%3D%222%22%20value%3D%22Processor%22%20style%3D%22text%3Bhtml%3D1%3Balign%3Dcenter%3BverticalAlign%3Dmiddle%3Bresizable%3D0%3Bpoints%3D%5B%5D%3Bautosize%3D1%3BstrokeColor%3Dnone%3B%22%20vertex%3D%221%22%20parent%3D%221%22%3E%3CmxGeometry%20x%3D%22545%22%20y%3D%22390%22%20width%3D%2270%22%20height%3D%2220%22%20as%3D%22geometry%22%2F%3E%3C%2FmxCell%3E%3C%2Froot%3E%3C%2FmxGraphModel%3EProce&lt;/span&gt;" style="text;html=1;align=center;verticalAlign=middle;resizable=0;points=[];autosize=1;strokeColor=none;" vertex="1" parent="1">
          <mxGeometry x="550" y="20" width="20" height="20" as="geometry" />
        </mxCell>
        <mxCell id="JLv5--RsgvomBnjnf3lx-11" value="Abuse Scanner" style="rounded=0;whiteSpace=wrap;html=1;" vertex="1" parent="1">
          <mxGeometry x="490" y="80" width="120" height="60" as="geometry" />
        </mxCell>
        <mxCell id="JLv5--RsgvomBnjnf3lx-13" value="abusive-message" style="shape=cylinder3;whiteSpace=wrap;html=1;boundedLbl=1;backgroundOutline=1;size=15;direction=north;" vertex="1" parent="1">
          <mxGeometry x="740" y="90" width="120" height="30" as="geometry" />
        </mxCell>
        <mxCell id="JLv5--RsgvomBnjnf3lx-14" value="" style="endArrow=classic;html=1;exitX=1;exitY=0.4;exitDx=0;exitDy=0;entryX=0.5;entryY=0;entryDx=0;entryDy=0;entryPerimeter=0;exitPerimeter=0;" edge="1" parent="1" source="JLv5--RsgvomBnjnf3lx-11" target="JLv5--RsgvomBnjnf3lx-13">
          <mxGeometry width="50" height="50" relative="1" as="geometry">
            <mxPoint x="600" y="180" as="sourcePoint" />
            <mxPoint x="650" y="130" as="targetPoint" />
          </mxGeometry>
        </mxCell>
        <mxCell id="JLv5--RsgvomBnjnf3lx-15" value="If abusive message&lt;br&gt;" style="text;html=1;align=center;verticalAlign=middle;resizable=0;points=[];autosize=1;strokeColor=none;" vertex="1" parent="1">
          <mxGeometry x="610" y="90" width="120" height="20" as="geometry" />
        </mxCell>
        <mxCell id="JLv5--RsgvomBnjnf3lx-16" value="" style="endArrow=classic;html=1;exitX=0.5;exitY=1;exitDx=0;exitDy=0;" edge="1" parent="1" source="JLv5--RsgvomBnjnf3lx-11" target="JLv5--RsgvomBnjnf3lx-19">
          <mxGeometry width="50" height="50" relative="1" as="geometry">
            <mxPoint x="600" y="170" as="sourcePoint" />
            <mxPoint x="750" y="270" as="targetPoint" />
          </mxGeometry>
        </mxCell>
        <mxCell id="JLv5--RsgvomBnjnf3lx-34" style="edgeStyle=orthogonalEdgeStyle;rounded=0;orthogonalLoop=1;jettySize=auto;html=1;entryX=0.5;entryY=0;entryDx=0;entryDy=0;" edge="1" parent="1" source="JLv5--RsgvomBnjnf3lx-19" target="JLv5--RsgvomBnjnf3lx-29">
          <mxGeometry relative="1" as="geometry" />
        </mxCell>
        <mxCell id="JLv5--RsgvomBnjnf3lx-19" value="Confidentiality Scanner&lt;br&gt;&lt;br&gt;(For sake of example throwing exception if it&#39;s confidential)&lt;br&gt;" style="rounded=0;whiteSpace=wrap;html=1;" vertex="1" parent="1">
          <mxGeometry x="490" y="165" width="120" height="95" as="geometry" />
        </mxCell>
        <mxCell id="JLv5--RsgvomBnjnf3lx-28" value="&lt;span&gt;processed-message&lt;/span&gt;" style="shape=cylinder3;whiteSpace=wrap;html=1;boundedLbl=1;backgroundOutline=1;size=15;direction=north;" vertex="1" parent="1">
          <mxGeometry x="740" y="320" width="120" height="30" as="geometry" />
        </mxCell>
        <mxCell id="JLv5--RsgvomBnjnf3lx-30" style="edgeStyle=orthogonalEdgeStyle;rounded=0;orthogonalLoop=1;jettySize=auto;html=1;entryX=0.5;entryY=0;entryDx=0;entryDy=0;entryPerimeter=0;" edge="1" parent="1" source="JLv5--RsgvomBnjnf3lx-29" target="JLv5--RsgvomBnjnf3lx-28">
          <mxGeometry relative="1" as="geometry">
            <Array as="points">
              <mxPoint x="690" y="335" />
              <mxPoint x="690" y="335" />
            </Array>
          </mxGeometry>
        </mxCell>
        <mxCell id="JLv5--RsgvomBnjnf3lx-43" value="No exception" style="edgeLabel;html=1;align=center;verticalAlign=middle;resizable=0;points=[];" vertex="1" connectable="0" parent="JLv5--RsgvomBnjnf3lx-30">
          <mxGeometry x="0.3333" y="-1" relative="1" as="geometry">
            <mxPoint x="-20" y="-1" as="offset" />
          </mxGeometry>
        </mxCell>
        <mxCell id="JLv5--RsgvomBnjnf3lx-31" style="edgeStyle=orthogonalEdgeStyle;rounded=0;orthogonalLoop=1;jettySize=auto;html=1;entryX=0.707;entryY=0.989;entryDx=0;entryDy=0;entryPerimeter=0;exitX=0;exitY=0.5;exitDx=0;exitDy=0;" edge="1" parent="1" source="JLv5--RsgvomBnjnf3lx-36" target="JLv5--RsgvomBnjnf3lx-2">
          <mxGeometry relative="1" as="geometry" />
        </mxCell>
        <mxCell id="JLv5--RsgvomBnjnf3lx-42" value="retry &amp;lt; 3" style="edgeLabel;html=1;align=center;verticalAlign=middle;resizable=0;points=[];" vertex="1" connectable="0" parent="JLv5--RsgvomBnjnf3lx-31">
          <mxGeometry x="-0.4241" y="-4" relative="1" as="geometry">
            <mxPoint as="offset" />
          </mxGeometry>
        </mxCell>
        <mxCell id="JLv5--RsgvomBnjnf3lx-37" style="edgeStyle=orthogonalEdgeStyle;rounded=0;orthogonalLoop=1;jettySize=auto;html=1;" edge="1" parent="1" source="JLv5--RsgvomBnjnf3lx-29" target="JLv5--RsgvomBnjnf3lx-36">
          <mxGeometry relative="1" as="geometry" />
        </mxCell>
        <mxCell id="JLv5--RsgvomBnjnf3lx-29" value="Exception?" style="rhombus;whiteSpace=wrap;html=1;" vertex="1" parent="1">
          <mxGeometry x="510" y="295" width="80" height="80" as="geometry" />
        </mxCell>
        <mxCell id="JLv5--RsgvomBnjnf3lx-35" value="Retry on exception" style="text;html=1;align=center;verticalAlign=middle;resizable=0;points=[];autosize=1;strokeColor=none;" vertex="1" parent="1">
          <mxGeometry x="550" y="270" width="120" height="20" as="geometry" />
        </mxCell>
        <mxCell id="JLv5--RsgvomBnjnf3lx-39" style="edgeStyle=orthogonalEdgeStyle;rounded=0;orthogonalLoop=1;jettySize=auto;html=1;" edge="1" parent="1" source="JLv5--RsgvomBnjnf3lx-36" target="JLv5--RsgvomBnjnf3lx-38">
          <mxGeometry relative="1" as="geometry" />
        </mxCell>
        <mxCell id="JLv5--RsgvomBnjnf3lx-40" value="retry exhausted" style="edgeLabel;html=1;align=center;verticalAlign=middle;resizable=0;points=[];" vertex="1" connectable="0" parent="JLv5--RsgvomBnjnf3lx-39">
          <mxGeometry x="-0.36" y="4" relative="1" as="geometry">
            <mxPoint as="offset" />
          </mxGeometry>
        </mxCell>
        <mxCell id="JLv5--RsgvomBnjnf3lx-36" value="retry count?" style="rhombus;whiteSpace=wrap;html=1;" vertex="1" parent="1">
          <mxGeometry x="510" y="425" width="80" height="80" as="geometry" />
        </mxCell>
        <mxCell id="JLv5--RsgvomBnjnf3lx-38" value="dlq-message" style="shape=cylinder3;whiteSpace=wrap;html=1;boundedLbl=1;backgroundOutline=1;size=15;direction=north;" vertex="1" parent="1">
          <mxGeometry x="740" y="450" width="120" height="30" as="geometry" />
        </mxCell>
        <mxCell id="JLv5--RsgvomBnjnf3lx-41" style="edgeStyle=orthogonalEdgeStyle;rounded=0;orthogonalLoop=1;jettySize=auto;html=1;exitX=0.5;exitY=1;exitDx=0;exitDy=0;" edge="1" parent="1" source="JLv5--RsgvomBnjnf3lx-27" target="JLv5--RsgvomBnjnf3lx-27">
          <mxGeometry relative="1" as="geometry">
            <mxPoint x="570" y="610" as="targetPoint" />
          </mxGeometry>
        </mxCell>
        <mxCell id="JLv5--RsgvomBnjnf3lx-50" value="Processor" style="text;html=1;align=center;verticalAlign=middle;resizable=0;points=[];autosize=1;strokeColor=none;" vertex="1" parent="1">
          <mxGeometry x="595" y="10" width="70" height="20" as="geometry" />
        </mxCell>
      </root>
    </mxGraphModel>
  </diagram>
</mxfile>
